<mxfile host="Electron" modified="2023-11-05T12:18:49.973Z" agent="Mozilla/5.0 (Windows NT 10.0; Win64; x64) AppleWebKit/537.36 (KHTML, like Gecko) draw.io/22.0.3 Chrome/114.0.5735.289 Electron/25.8.4 Safari/537.36" etag="hOue2xpylPrGMdCRsxSL" version="22.0.3" type="device">
  <diagram name="Sayfa -1" id="Zs254EkiApa8GmF5Y6ey">
    <mxGraphModel dx="1036" dy="606" grid="1" gridSize="10" guides="1" tooltips="1" connect="1" arrows="1" fold="1" page="1" pageScale="1" pageWidth="827" pageHeight="1169" math="0" shadow="0">
      <root>
        <mxCell id="0" />
        <mxCell id="1" parent="0" />
        <mxCell id="ZRcWHQd_XiSC8xcka77N-2" style="edgeStyle=orthogonalEdgeStyle;rounded=0;orthogonalLoop=1;jettySize=auto;html=1;" edge="1" parent="1" source="ZRcWHQd_XiSC8xcka77N-1">
          <mxGeometry relative="1" as="geometry">
            <mxPoint x="370" y="160" as="targetPoint" />
          </mxGeometry>
        </mxCell>
        <mxCell id="ZRcWHQd_XiSC8xcka77N-1" value="start" style="ellipse;whiteSpace=wrap;html=1;" vertex="1" parent="1">
          <mxGeometry x="310" width="120" height="80" as="geometry" />
        </mxCell>
        <mxCell id="ZRcWHQd_XiSC8xcka77N-6" style="edgeStyle=orthogonalEdgeStyle;rounded=0;orthogonalLoop=1;jettySize=auto;html=1;entryX=0.5;entryY=0;entryDx=0;entryDy=0;" edge="1" parent="1" source="ZRcWHQd_XiSC8xcka77N-3" target="ZRcWHQd_XiSC8xcka77N-4">
          <mxGeometry relative="1" as="geometry" />
        </mxCell>
        <mxCell id="ZRcWHQd_XiSC8xcka77N-3" value="sıcaklık derecesini giriniz,T" style="shape=parallelogram;perimeter=parallelogramPerimeter;whiteSpace=wrap;html=1;fixedSize=1;" vertex="1" parent="1">
          <mxGeometry x="310" y="260" width="120" height="60" as="geometry" />
        </mxCell>
        <mxCell id="ZRcWHQd_XiSC8xcka77N-11" value="FALSE" style="edgeStyle=orthogonalEdgeStyle;rounded=0;orthogonalLoop=1;jettySize=auto;html=1;entryX=0.5;entryY=0;entryDx=0;entryDy=0;" edge="1" parent="1" source="ZRcWHQd_XiSC8xcka77N-4" target="ZRcWHQd_XiSC8xcka77N-14">
          <mxGeometry relative="1" as="geometry">
            <mxPoint x="190" y="420" as="targetPoint" />
            <Array as="points">
              <mxPoint x="260" y="420" />
              <mxPoint x="260" y="421" />
              <mxPoint x="110" y="421" />
            </Array>
          </mxGeometry>
        </mxCell>
        <mxCell id="ZRcWHQd_XiSC8xcka77N-12" value="TRUE" style="edgeStyle=orthogonalEdgeStyle;rounded=0;orthogonalLoop=1;jettySize=auto;html=1;entryX=0.5;entryY=0;entryDx=0;entryDy=0;" edge="1" parent="1" source="ZRcWHQd_XiSC8xcka77N-4" target="ZRcWHQd_XiSC8xcka77N-13">
          <mxGeometry relative="1" as="geometry">
            <mxPoint x="530" y="420" as="targetPoint" />
            <Array as="points">
              <mxPoint x="470" y="420" />
              <mxPoint x="470" y="421" />
              <mxPoint x="550" y="421" />
            </Array>
          </mxGeometry>
        </mxCell>
        <mxCell id="ZRcWHQd_XiSC8xcka77N-4" value="T&amp;gt;0" style="rhombus;whiteSpace=wrap;html=1;" vertex="1" parent="1">
          <mxGeometry x="330" y="380" width="80" height="80" as="geometry" />
        </mxCell>
        <mxCell id="ZRcWHQd_XiSC8xcka77N-9" style="edgeStyle=orthogonalEdgeStyle;rounded=0;orthogonalLoop=1;jettySize=auto;html=1;entryX=0.5;entryY=0;entryDx=0;entryDy=0;" edge="1" parent="1" source="ZRcWHQd_XiSC8xcka77N-8" target="ZRcWHQd_XiSC8xcka77N-3">
          <mxGeometry relative="1" as="geometry" />
        </mxCell>
        <mxCell id="ZRcWHQd_XiSC8xcka77N-8" value="sıcaklık==T" style="rounded=0;whiteSpace=wrap;html=1;" vertex="1" parent="1">
          <mxGeometry x="310" y="120" width="120" height="60" as="geometry" />
        </mxCell>
        <mxCell id="ZRcWHQd_XiSC8xcka77N-18" style="edgeStyle=orthogonalEdgeStyle;rounded=0;orthogonalLoop=1;jettySize=auto;html=1;" edge="1" parent="1" source="ZRcWHQd_XiSC8xcka77N-13" target="ZRcWHQd_XiSC8xcka77N-15">
          <mxGeometry relative="1" as="geometry">
            <Array as="points">
              <mxPoint x="550" y="590" />
              <mxPoint x="360" y="590" />
            </Array>
          </mxGeometry>
        </mxCell>
        <mxCell id="ZRcWHQd_XiSC8xcka77N-13" value="Sıcaklık donma noktasının üstünde" style="shape=document;whiteSpace=wrap;html=1;boundedLbl=1;" vertex="1" parent="1">
          <mxGeometry x="490" y="460" width="120" height="80" as="geometry" />
        </mxCell>
        <mxCell id="ZRcWHQd_XiSC8xcka77N-17" style="edgeStyle=orthogonalEdgeStyle;rounded=0;orthogonalLoop=1;jettySize=auto;html=1;exitX=0.49;exitY=0.927;exitDx=0;exitDy=0;exitPerimeter=0;" edge="1" parent="1" source="ZRcWHQd_XiSC8xcka77N-14" target="ZRcWHQd_XiSC8xcka77N-15">
          <mxGeometry relative="1" as="geometry">
            <Array as="points">
              <mxPoint x="110" y="534" />
              <mxPoint x="110" y="590" />
              <mxPoint x="360" y="590" />
            </Array>
          </mxGeometry>
        </mxCell>
        <mxCell id="ZRcWHQd_XiSC8xcka77N-14" value="Sıcaklık donma noktasının altında" style="shape=document;whiteSpace=wrap;html=1;boundedLbl=1;" vertex="1" parent="1">
          <mxGeometry x="50" y="460" width="120" height="80" as="geometry" />
        </mxCell>
        <mxCell id="ZRcWHQd_XiSC8xcka77N-15" value="finish" style="ellipse;whiteSpace=wrap;html=1;" vertex="1" parent="1">
          <mxGeometry x="300" y="670" width="120" height="80" as="geometry" />
        </mxCell>
      </root>
    </mxGraphModel>
  </diagram>
</mxfile>
